<svg version="1" xmlns="http://www.w3.org/2000/svg" width="373.333" height="373.333" viewBox="0 0 280.000000 280.000000"><path d="M133.5 28.7C100 33.2 68.6 56 53.1 86.8c-7.9 15.6-11.9 34.2-10 46 1.3 8.5 4.2 13.3 12.3 20.5 7.7 6.8 8.9 10.3 6.1 17-6.7 15.8-7.6 21.6-5 30.4 1.8 5.9 8.3 12.7 16.3 16.7 2.9 1.5 6.9 4.8 9.4 7.7 12.9 15.5 14.7 16.5 29.5 17.8 9 .8 10.9 1.4 18.3 5.2 18.6 9.6 29.5 5.4 40.2-15.3 5.4-10.7 5.6-10.8 21-19.9 19.7-11.4 34.6-31.3 40.5-53.8 5-19 2.8-42.3-5.7-59.2-4.7-9.3-9.9-16.6-19.5-27.4-6.5-7.3-9.8-12.1-13.9-20.3-7.6-15.2-12.3-18.9-28.3-22.6-6.7-1.5-22.8-2-30.8-.9zm7.9 11.5c.3 1.3.6 4.2.6 6.5 0 3.7-.3 4.3-2.5 4.9-1.4.4-2.8.4-3.1.2-.2-.3-.7-3.5-1.1-7.2l-.6-6.6h3c2.3 0 3.2.5 3.7 2.2zm19.2-.5c-.2 1-.8 4.2-1.1 7-.5 4-1.1 5.3-2.3 5.3-2.8 0-3.9-1.3-3.7-4.5.4-10 .2-9.5 4.1-9.5 2.9 0 3.4.3 3 1.7zm-38.4 6.5c1.3 4.8 1.3 5.4-.1 6.5-1.4 1.1-1.4 1.2.4 1.3l2 .1-2 .9c-3.6 1.5-4.1 1.1-6.2-5.5l-2.1-6.4 2.7-1c1.4-.5 2.9-1 3.2-1 .4-.1 1.3 2.3 2.1 5.1zm58.1-3.3c.4.4-.3 3.5-1.5 7-2.1 5.8-2.4 6.2-4.8 5.6-1.4-.4-2.6-.8-2.8-1-.2-.1.5-3.3 1.5-6.9 1.7-6.4 1.9-6.7 4.3-6.1 1.4.4 2.8 1 3.3 1.4zM105 54.1c3 5.8 3 6.2 1.3 7.5-1 .7-2.2 1.3-2.8 1.3-1.4.1-7.9-11.3-6.7-11.7.5-.1 1.8-.9 2.8-1.7 1-.8 2-1.5 2.1-1.5.2 0 1.7 2.7 3.3 6.1zM88.6 64.8c4.6 5.6 4.8 6.1 2.8 8.3-.9 1-2 1.9-2.4 1.9-.4 0-2.6-2.3-5-5.1l-4.4-5.2 2.3-1.8c1.3-1.1 2.6-1.9 3-1.9.3 0 2 1.7 3.7 3.8zm79.8 6.3c14.4 4.9 26.3 12.9 34.4 23.3 16.1 20.8 18.9 53 6.6 75.5-12.9 23.5-34.3 36.6-59.9 36.5-11.9-.1-18.7-1.5-27.7-6-9.7-4.7-14.5-8.3-22-16.3-19.2-20.2-23.6-54.6-10.2-79 10.8-19.8 27.9-32.2 49.6-36.1 7.6-1.3 22.1-.3 29.2 2.1zm-91 9.1c3.5 3 3.8 3.6 2.7 5.6-1.5 2.9-2.4 2.8-7.6-.8-5.6-3.9-5.9-4.4-3.9-7.5 1.8-2.8 2.7-2.6 8.8 2.7zM67 95.6c5.7 2.5 5.8 2.6 4.7 5.5-.6 1.6-1.5 2.9-1.9 2.9-1.9 0-11.8-5-11.8-6 0-1.5 1.9-5 2.7-5 .3 0 3.1 1.2 6.3 2.6zm-1.4 22.8c-.4 1.6-.7 3-.9 3.2-.1.1-3.1-.4-6.7-1-6.4-1.2-6.5-1.3-6.1-4.2.1-1.6.5-3.2.7-3.5.2-.4 3.3.1 7 .9 6.5 1.6 6.6 1.7 6 4.6zM64 136.5v3.5H50v-7h14v3.5zm47.4 76.7c2.3 3.2 2 5.5-1 8.4-4.2 4.3-10.4 1.5-10.4-4.7 0-3.7 2.4-5.9 6.5-5.9 2.4 0 3.9.7 4.9 2.2zm35.6 8.9c0 .6.9.8 2.2.4 1.7-.6 2-.4 1.5.9-.4 1-.1 1.9.8 2.3 1.2.4 1.3.9.5 1.8-.7.9-.8 1.5-.1 1.9 1.9 1.2-3 4.7-7.1 5.1-3.6.3-3.9.2-3.5-1.6.3-1.3 0-1.9-1-1.9-1.2 0-1.3-.3-.4-1.4.8-1 .9-1.6.2-2.1-.7-.4-.5-1.5.5-3 .9-1.4 2-2.3 2.4-2 .5.3 1.1.1 1.5-.5.8-1.3 2.5-1.3 2.5.1z"/><path d="M156.5 50c-.3.5-.1 1 .4 1 .6 0 1.1-.5 1.1-1 0-.6-.2-1-.4-1-.3 0-.8.4-1.1 1zM137 72.1c-25.6 4.9-46.2 26-51.6 52.9-4.3 21.7 4.1 47.6 20.1 61.7 12.5 11.1 24.7 16.1 41 17 30.2 1.7 55.4-16.5 65.7-47.2 3.3-9.9 3.3-26.7-.1-37.5-7.5-24.3-25.9-41.6-50.1-47-5.4-1.1-18.7-1.1-25 .1zm45.9 13.3c.9 1 .8 1.6-.4 2.6-1.9 1.6-4.1-.1-3.2-2.4.8-2 2.1-2 3.6-.2zm-31.3 31.3c.6 7.2.5 8.3-1 8.9-.9.4-2 .4-2.3 0-.7-.7-.4-16.6.4-17.9 1.2-2 2.2 1.2 2.9 9zm-11.6 2.5c0 .7-1.7 3-3.9 5.1-12.3 11.9-4.2 32.7 12.9 33 17 .3 25.3-21.3 12.9-33.3-3.8-3.7-4.4-6-1.5-6 2.4 0 8.5 7.2 10 11.8 4.7 13.6-2.3 27.4-15.9 31.2-9.8 2.8-20.7-2.3-25.7-12-4.8-9-3.5-19.1 3.4-26.6 3.9-4.2 7.8-5.8 7.8-3.2zM103.2 214.2c-1.5 1.5-1.5 4.1 0 5.6 2.1 2.1 2.8 1.3 2.8-2.8s-.7-4.9-2.8-2.8z"/></svg>